<svg width="28" height="28" viewBox="0 0 28 28" fill="none" xmlns="http://www.w3.org/2000/svg">
<g clip-path="url(#clip0_767_20739)">
<path d="M14 18.375C15.933 18.375 17.5 16.808 17.5 14.875C17.5 12.942 15.933 11.375 14 11.375C12.067 11.375 10.5 12.942 10.5 14.875C10.5 16.808 12.067 18.375 14 18.375Z" fill="#3B3F6E"/>
<path d="M23.625 7.875H20.3984C20.2344 7.875 20.0309 7.76891 19.8723 7.60156L18.4538 5.36266C18.4313 5.32712 18.4063 5.29331 18.3788 5.26148C17.8888 4.69 17.2266 4.375 16.5156 4.375H11.4844C10.7734 4.375 10.1112 4.69 9.62117 5.26148C9.59373 5.29331 9.56869 5.32712 9.54625 5.36266L8.12766 7.60484C8.00625 7.73719 7.83563 7.87828 7.65625 7.87828V7.44078C7.65625 7.20872 7.56406 6.98616 7.39997 6.82206C7.23587 6.65797 7.01331 6.56578 6.78125 6.56578H5.46875C5.23669 6.56578 5.01413 6.65797 4.85003 6.82206C4.68594 6.98616 4.59375 7.20872 4.59375 7.44078V7.87828H4.375C3.67903 7.879 3.01177 8.1558 2.51964 8.64793C2.02752 9.14005 1.75072 9.80731 1.75 10.5033V21C1.75072 21.696 2.02752 22.3632 2.51964 22.8554C3.01177 23.3475 3.67903 23.6243 4.375 23.625H23.625C24.321 23.6243 24.9882 23.3475 25.4804 22.8554C25.9725 22.3632 26.2493 21.696 26.25 21V10.5C26.2493 9.80403 25.9725 9.13677 25.4804 8.64464C24.9882 8.15252 24.321 7.87572 23.625 7.875ZM14 20.125C12.9616 20.125 11.9466 19.8171 11.0833 19.2402C10.2199 18.6633 9.54699 17.8434 9.14963 16.8841C8.75227 15.9248 8.64831 14.8692 8.85088 13.8508C9.05345 12.8324 9.55346 11.8969 10.2877 11.1627C11.0219 10.4285 11.9574 9.92845 12.9758 9.72588C13.9942 9.52331 15.0498 9.62727 16.0091 10.0246C16.9684 10.422 17.7883 11.0949 18.3652 11.9583C18.9421 12.8216 19.25 13.8366 19.25 14.875C19.2484 16.2669 18.6948 17.6013 17.7106 18.5856C16.7263 19.5698 15.3919 20.1234 14 20.125Z" fill="#3B3F6E"/>
</g>
<defs>
<clipPath id="clip0_767_20739">
<rect width="28" height="28" fill="white"/>
</clipPath>
</defs>
</svg>
