<svg width="20" height="20" viewBox="0 0 20 20" fill="none" xmlns="http://www.w3.org/2000/svg">
<path d="M15.7035 6.5625C15.5891 8.15117 14.4106 9.375 13.1254 9.375C11.8403 9.375 10.6598 8.15156 10.5473 6.5625C10.4301 4.90977 11.5774 3.75 13.1254 3.75C14.6735 3.75 15.8207 4.93984 15.7035 6.5625Z" stroke="#2B2B2F" stroke-opacity="0.6" stroke-width="1.25" stroke-linecap="round" stroke-linejoin="round"/>
<path d="M13.1248 11.875C10.5791 11.875 8.1311 13.1395 7.51781 15.602C7.43656 15.9277 7.64086 16.25 7.97563 16.25H18.2745C18.6092 16.25 18.8123 15.9277 18.7323 15.602C18.119 13.1 15.6709 11.875 13.1248 11.875Z" stroke="#2B2B2F" stroke-opacity="0.6" stroke-width="1.25" stroke-miterlimit="10"/>
<path d="M7.81116 7.26328C7.71976 8.53203 6.76741 9.53125 5.74085 9.53125C4.71429 9.53125 3.76038 8.53242 3.67054 7.26328C3.57718 5.94336 4.50413 5 5.74085 5C6.97757 5 7.90452 5.96758 7.81116 7.26328Z" stroke="#2B2B2F" stroke-opacity="0.6" stroke-width="1.25" stroke-linecap="round" stroke-linejoin="round"/>
<path d="M8.04726 11.9531C7.34218 11.6301 6.56562 11.5059 5.74257 11.5059C3.71132 11.5059 1.75429 12.5156 1.26405 14.4824C1.1996 14.7426 1.36288 15 1.63007 15H6.01601" stroke="#2B2B2F" stroke-opacity="0.6" stroke-width="1.25" stroke-miterlimit="10" stroke-linecap="round"/>
</svg>
