<svg width="28" height="28" viewBox="0 0 28 28" fill="none" xmlns="http://www.w3.org/2000/svg">
<g clip-path="url(#clip0_16_1034)">
<path d="M2.37484 14.3757C2.29432 14.1337 2.29432 13.8721 2.37484 13.6302C3.993 8.76167 8.58617 5.25 13.9995 5.25C19.4105 5.25 24.0013 8.75817 25.623 13.6243C25.7047 13.8658 25.7047 14.1272 25.623 14.3698C24.006 19.2383 19.4128 22.75 13.9995 22.75C8.5885 22.75 3.9965 19.2418 2.37484 14.3757Z" stroke="#3B3F6E" stroke-width="1.75" stroke-linecap="round" stroke-linejoin="round"/>
<path d="M17.5 14C17.5 14.9283 17.1313 15.8185 16.4749 16.4749C15.8185 17.1313 14.9283 17.5 14 17.5C13.0717 17.5 12.1815 17.1313 11.5251 16.4749C10.8687 15.8185 10.5 14.9283 10.5 14C10.5 13.0717 10.8687 12.1815 11.5251 11.5251C12.1815 10.8687 13.0717 10.5 14 10.5C14.9283 10.5 15.8185 10.8687 16.4749 11.5251C17.1313 12.1815 17.5 13.0717 17.5 14Z" stroke="#3B3F6E" stroke-width="1.75" stroke-linecap="round" stroke-linejoin="round"/>
</g>
<defs>
<clipPath id="clip0_16_1034">
<rect width="28" height="28" fill="white"/>
</clipPath>
</defs>
</svg>
