<svg width="16" height="16" viewBox="0 0 16 16" fill="none" xmlns="http://www.w3.org/2000/svg">
<g clip-path="url(#clip0_283_281)">
<g clip-path="url(#clip1_283_281)">
<path d="M6.49994 15.9999C6.34193 16.0007 6.18743 15.9533 6.05709 15.8639C5.92676 15.7746 5.8268 15.6476 5.77057 15.4999L4.52557 12.2624C4.50035 12.1972 4.46178 12.1379 4.41232 12.0885C4.36286 12.039 4.30362 12.0004 4.23838 11.9752L0.999941 10.7293C0.852423 10.6727 0.725541 10.5727 0.63604 10.4424C0.546538 10.3122 0.498626 10.1579 0.498626 9.99991C0.498626 9.8419 0.546538 9.68761 0.63604 9.55739C0.725541 9.42717 0.852423 9.32716 0.999941 9.27054L4.23744 8.02554C4.30268 8.00032 4.36193 7.96175 4.41138 7.91229C4.46084 7.86284 4.49941 7.80359 4.52463 7.73835L5.77057 4.49991C5.82718 4.3524 5.9272 4.22551 6.05742 4.13601C6.18764 4.04651 6.34193 3.9986 6.49994 3.9986C6.65795 3.9986 6.81225 4.04651 6.94246 4.13601C7.07268 4.22551 7.1727 4.3524 7.22932 4.49991L8.47432 7.73741C8.49953 7.80265 8.5381 7.8619 8.58756 7.91136C8.63702 7.96081 8.69627 7.99939 8.7615 8.0246L11.9803 9.26304C12.1338 9.31994 12.266 9.42278 12.359 9.55754C12.452 9.6923 12.5012 9.85244 12.4999 10.0162C12.4976 10.1714 12.4486 10.3224 12.3595 10.4495C12.2703 10.5767 12.1451 10.6741 11.9999 10.7293L8.76244 11.9743C8.6972 11.9995 8.63795 12.0381 8.5885 12.0875C8.53904 12.137 8.50047 12.1962 8.47525 12.2615L7.22932 15.4999C7.17308 15.6476 7.07312 15.7746 6.94279 15.8639C6.81245 15.9533 6.65796 16.0007 6.49994 15.9999ZM2.74994 5.49991C2.6573 5.49991 2.56684 5.47184 2.49047 5.4194C2.4141 5.36696 2.35541 5.29262 2.32213 5.20616L1.79525 3.83616C1.78383 3.8062 1.76621 3.77899 1.74354 3.75632C1.72086 3.73364 1.69365 3.71602 1.66369 3.7046L0.293691 3.17773C0.207247 3.14444 0.132915 3.08574 0.0804885 3.00937C0.0280618 2.933 0 2.84255 0 2.74991C0 2.65728 0.0280618 2.56682 0.0804885 2.49045C0.132915 2.41408 0.207247 2.35539 0.293691 2.3221L1.66369 1.79523C1.69362 1.78375 1.72081 1.76611 1.74347 1.74345C1.76614 1.72078 1.78378 1.6936 1.79525 1.66366L2.31744 0.305851C2.34689 0.225914 2.39757 0.155514 2.46402 0.102216C2.53048 0.0489189 2.6102 0.0147393 2.69463 0.00335107C2.79599 -0.00897073 2.89856 0.0128976 2.98608 0.0654883C3.0736 0.118079 3.14105 0.198382 3.17775 0.293664L3.70463 1.66366C3.7161 1.6936 3.73374 1.72078 3.75641 1.74345C3.77908 1.76611 3.80626 1.78375 3.83619 1.79523L5.20619 2.3221C5.29263 2.35539 5.36697 2.41408 5.41939 2.49045C5.47182 2.56682 5.49988 2.65728 5.49988 2.74991C5.49988 2.84255 5.47182 2.933 5.41939 3.00937C5.36697 3.08574 5.29263 3.14444 5.20619 3.17773L3.83619 3.7046C3.80623 3.71602 3.77902 3.73364 3.75635 3.75632C3.73367 3.77899 3.71605 3.8062 3.70463 3.83616L3.17775 5.20616C3.14447 5.29262 3.08578 5.36696 3.00941 5.4194C2.93304 5.47184 2.84258 5.49991 2.74994 5.49991ZM12.4999 7.99991C12.3989 7.99988 12.3002 7.96923 12.2169 7.91199C12.1336 7.85475 12.0696 7.77362 12.0334 7.67929L11.3196 5.82398C11.3071 5.79128 11.2878 5.76159 11.263 5.73683C11.2383 5.71207 11.2086 5.69278 11.1759 5.68023L9.32057 4.96648C9.22631 4.93016 9.14526 4.86614 9.0881 4.78286C9.03094 4.69957 9.00034 4.60093 9.00034 4.49991C9.00034 4.3989 9.03094 4.30026 9.0881 4.21697C9.14526 4.13369 9.22631 4.06967 9.32057 4.03335L11.1759 3.3196C11.2086 3.30705 11.2383 3.28776 11.263 3.263C11.2878 3.23823 11.3071 3.20854 11.3196 3.17585L12.0281 1.33366C12.0604 1.24655 12.1158 1.16983 12.1882 1.11167C12.2607 1.0535 12.3476 1.01607 12.4396 1.00335C12.5502 0.989962 12.6621 1.0139 12.7576 1.07136C12.8531 1.12883 12.9266 1.21652 12.9665 1.32054L13.6803 3.17585C13.6928 3.20854 13.7121 3.23823 13.7369 3.263C13.7616 3.28776 13.7913 3.30705 13.824 3.3196L15.6793 4.03335C15.7736 4.06967 15.8546 4.13369 15.9118 4.21697C15.9689 4.30026 15.9995 4.3989 15.9995 4.49991C15.9995 4.60093 15.9689 4.69957 15.9118 4.78286C15.8546 4.86614 15.7736 4.93016 15.6793 4.96648L13.824 5.68023C13.7913 5.69278 13.7616 5.71207 13.7369 5.73683C13.7121 5.76159 13.6928 5.79128 13.6803 5.82398L12.9665 7.67929C12.9302 7.77362 12.8663 7.85475 12.783 7.91199C12.6997 7.96923 12.601 7.99988 12.4999 7.99991Z" fill="#9A9CCB"/>
</g>
</g>
<defs>
<clipPath id="clip0_283_281">
<rect width="16" height="16" fill="white"/>
</clipPath>
<clipPath id="clip1_283_281">
<rect width="16" height="16" fill="white"/>
</clipPath>
</defs>
</svg>
