<svg width="28" height="28" viewBox="0 0 28 28" fill="none" xmlns="http://www.w3.org/2000/svg">
<g clip-path="url(#clip0_16_1056)">
<path d="M14 7.04901C12.0769 5.32393 9.58346 4.37144 7 4.37501C5.77267 4.37501 4.59433 4.58501 3.5 4.97234V21.5973C4.62422 21.2007 5.80786 20.9987 7 21C9.68917 21 12.1427 22.0115 14 23.674M14 7.04901C15.9231 5.32383 18.4165 4.37133 21 4.37501C22.2273 4.37501 23.4057 4.58501 24.5 4.97234V21.5973C23.3758 21.2007 22.1921 20.9987 21 21C18.4165 20.9964 15.9231 21.9489 14 23.674M14 7.04901V23.674" stroke="#3B3F6E" stroke-width="1.75" stroke-linecap="round" stroke-linejoin="round"/>
</g>
<defs>
<clipPath id="clip0_16_1056">
<rect width="28" height="28" fill="white"/>
</clipPath>
</defs>
</svg>
