<svg width="28" height="28" viewBox="0 0 28 28" fill="none" xmlns="http://www.w3.org/2000/svg">
<g clip-path="url(#clip0_16_1049)">
<path d="M11.725 5.3375C11.725 5.0962 11.6775 4.85725 11.5851 4.63432C11.4928 4.41138 11.3574 4.20882 11.1868 4.03819C11.0162 3.86756 10.8136 3.73221 10.5907 3.63987C10.3677 3.54753 10.1288 3.5 9.8875 3.5C9.6462 3.5 9.40725 3.54753 9.18432 3.63987C8.96138 3.73221 8.75882 3.86756 8.58819 4.03819C8.41756 4.20882 8.28221 4.41138 8.18987 4.63432C8.09753 4.85725 8.05 5.0962 8.05 5.3375V8.8375M11.725 5.3375V3.5875C11.725 3.10016 11.9186 2.63279 12.2632 2.28819C12.6078 1.94359 13.0752 1.75 13.5625 1.75C14.0498 1.75 14.5172 1.94359 14.8618 2.28819C15.2064 2.63279 15.4 3.10016 15.4 3.5875V5.3375M11.725 5.3375L11.8125 12.25M8.05 8.8375C8.05 8.35016 7.85641 7.88279 7.51181 7.53819C7.16721 7.19359 6.69983 7 6.2125 7C5.72516 7 5.25779 7.19359 4.91319 7.53819C4.56859 7.88279 4.375 8.35016 4.375 8.8375V18.375C4.375 20.4636 5.20469 22.4666 6.68153 23.9435C8.15838 25.4203 10.1614 26.25 12.25 26.25H14.6043C16.2287 26.2498 17.7865 25.6044 18.935 24.4557L20.9557 22.435C22.1044 21.2865 22.7498 19.7287 22.75 18.1043L22.7535 15.743C22.7546 15.5365 22.8377 15.3388 22.9845 15.1935C23.1552 15.0228 23.2906 14.8202 23.3829 14.5972C23.4753 14.3742 23.5228 14.1352 23.5228 13.8938C23.5228 13.6525 23.4753 13.4135 23.3829 13.1905C23.2906 12.9675 23.1552 12.7648 22.9845 12.5942C22.8138 12.4235 22.6112 12.2881 22.3882 12.1957C22.1652 12.1034 21.9262 12.0558 21.6848 12.0558C21.4435 12.0558 21.2045 12.1034 20.9815 12.1957C20.7585 12.2881 20.5558 12.4235 20.3852 12.5942C19.5527 13.4255 19.083 14.5525 19.0785 15.729M8.05 8.8375V14M15.4 5.3375V13.125M15.4 5.3375C15.4 4.85016 15.5936 4.38279 15.9382 4.03819C16.2828 3.69359 16.7502 3.5 17.2375 3.5C17.7248 3.5 18.1922 3.69359 18.5368 4.03819C18.8814 4.38279 19.075 4.85016 19.075 5.3375V17.5M19.075 17.5C18.3859 17.4997 17.7034 17.6353 17.0668 17.8992C16.4302 18.163 15.8519 18.5499 15.365 19.0377M19.075 17.5H19.0773" stroke="#3B3F6E" stroke-width="1.75" stroke-linecap="round" stroke-linejoin="round"/>
</g>
<defs>
<clipPath id="clip0_16_1049">
<rect width="28" height="28" fill="white"/>
</clipPath>
</defs>
</svg>
