<svg width="40" height="40" viewBox="0 0 40 40" fill="none" xmlns="http://www.w3.org/2000/svg">
<g clip-path="url(#clip0_92_801)">
<path d="M19.307 3.95991C19.5123 3.82304 19.7535 3.75 20.0003 3.75C20.2471 3.75 20.4883 3.82304 20.6936 3.95991L35.6936 13.9599C35.8322 14.0501 35.9514 14.1669 36.0446 14.3034C36.1377 14.44 36.2028 14.5937 36.2361 14.7557C36.2694 14.9176 36.2703 15.0845 36.2386 15.2467C36.207 15.409 36.1435 15.5634 36.0518 15.7009C35.9601 15.8385 35.842 15.9564 35.7044 16.0481C35.5668 16.1397 35.4124 16.2031 35.2501 16.2346C35.0878 16.2661 34.9209 16.2651 34.759 16.2317C34.5971 16.1983 34.4435 16.1331 34.3069 16.0399L20.0003 6.50158L5.69362 16.0399C5.41777 16.2195 5.08223 16.283 4.75984 16.2166C4.43746 16.1503 4.15423 15.9595 3.97166 15.6857C3.78909 15.4118 3.72189 15.077 3.78467 14.7539C3.84744 14.4308 4.03512 14.1455 4.30696 13.9599L19.307 3.95991Z" fill="#3B3F6E" stroke="#3B3F6E" stroke-width="2.5"/>
<path fill-rule="evenodd" clip-rule="evenodd" d="M33.75 17.22V33.75H35C35.3315 33.75 35.6495 33.8817 35.8839 34.1161C36.1183 34.3505 36.25 34.6685 36.25 35C36.25 35.3315 36.1183 35.6495 35.8839 35.8839C35.6495 36.1183 35.3315 36.25 35 36.25H5C4.66848 36.25 4.35054 36.1183 4.11612 35.8839C3.8817 35.6495 3.75 35.3315 3.75 35C3.75 34.6685 3.8817 34.3505 4.11612 34.1161C4.35054 33.8817 4.66848 33.75 5 33.75H6.25V17.22C6.25039 16.9223 6.35703 16.6345 6.55075 16.4084C6.74446 16.1823 7.01251 16.0327 7.30667 15.9867C11.5057 15.3287 15.7497 14.9988 20 15C24.3167 15 28.5567 15.3367 32.6933 15.9867C32.9875 16.0327 33.2555 16.1823 33.4493 16.4084C33.643 16.6345 33.7496 16.9223 33.75 17.22ZM21.25 21.25C21.25 20.9185 21.1183 20.6005 20.8839 20.3661C20.6495 20.1317 20.3315 20 20 20C19.6685 20 19.3505 20.1317 19.1161 20.3661C18.8817 20.6005 18.75 20.9185 18.75 21.25V32.5C18.75 32.8315 18.8817 33.1495 19.1161 33.3839C19.3505 33.6183 19.6685 33.75 20 33.75C20.3315 33.75 20.6495 33.6183 20.8839 33.3839C21.1183 33.1495 21.25 32.8315 21.25 32.5V21.25ZM26.25 20C26.5815 20 26.8995 20.1317 27.1339 20.3661C27.3683 20.6005 27.5 20.9185 27.5 21.25V32.5C27.5 32.8315 27.3683 33.1495 27.1339 33.3839C26.8995 33.6183 26.5815 33.75 26.25 33.75C25.9185 33.75 25.6005 33.6183 25.3661 33.3839C25.1317 33.1495 25 32.8315 25 32.5V21.25C25 20.9185 25.1317 20.6005 25.3661 20.3661C25.6005 20.1317 25.9185 20 26.25 20ZM15 21.25C15 20.9185 14.8683 20.6005 14.6339 20.3661C14.3995 20.1317 14.0815 20 13.75 20C13.4185 20 13.1005 20.1317 12.8661 20.3661C12.6317 20.6005 12.5 20.9185 12.5 21.25V32.5C12.5 32.8315 12.6317 33.1495 12.8661 33.3839C13.1005 33.6183 13.4185 33.75 13.75 33.75C14.0815 33.75 14.3995 33.6183 14.6339 33.3839C14.8683 33.1495 15 32.8315 15 32.5V21.25Z" fill="#3B3F6E" stroke="#3B3F6E" stroke-width="2.5"/>
<path d="M20 13.125C20.4973 13.125 20.9742 12.9275 21.3258 12.5758C21.6775 12.2242 21.875 11.7473 21.875 11.25C21.875 10.7527 21.6775 10.2758 21.3258 9.92417C20.9742 9.57254 20.4973 9.375 20 9.375C19.5027 9.375 19.0258 9.57254 18.6742 9.92417C18.3225 10.2758 18.125 10.7527 18.125 11.25C18.125 11.7473 18.3225 12.2242 18.6742 12.5758C19.0258 12.9275 19.5027 13.125 20 13.125Z" fill="#3B3F6E" stroke="#3B3F6E" stroke-width="2.5"/>
</g>
<defs>
<clipPath id="clip0_92_801">
<rect width="40" height="40" fill="white"/>
</clipPath>
</defs>
</svg>
