<svg width="32" height="32" viewBox="0 0 32 32" fill="none" xmlns="http://www.w3.org/2000/svg">
<g clip-path="url(#clip0_14_905)">
<path d="M18 5.41343C18 3.6321 15.8453 2.7401 14.5867 4.0001L8.58668 10.0001H6.01068C4.48934 10.0001 2.92001 10.8854 2.46401 12.5401C2.15465 13.6674 1.99858 14.8312 2.00001 16.0001C2.00001 17.1974 2.16134 18.3574 2.46668 19.4601C2.92134 21.1134 4.49068 22.0001 6.01201 22.0001H8.58534L14.5853 28.0001C15.8453 29.2601 18 28.3681 18 26.5868V5.41343ZM24.7787 6.8081C24.9662 6.62083 25.2203 6.51565 25.4853 6.51565C25.7503 6.51565 26.0045 6.62083 26.192 6.8081C31.2693 11.8841 31.2693 20.1148 26.192 25.1921C26.1005 25.2903 25.9901 25.3692 25.8674 25.4238C25.7447 25.4785 25.6123 25.5079 25.478 25.5102C25.3438 25.5126 25.2104 25.4879 25.0859 25.4376C24.9614 25.3873 24.8483 25.3124 24.7533 25.2175C24.6583 25.1225 24.5835 25.0094 24.5332 24.8849C24.4829 24.7604 24.4582 24.627 24.4606 24.4927C24.4629 24.3585 24.4923 24.226 24.547 24.1034C24.6016 23.9807 24.6804 23.8703 24.7787 23.7788C25.8003 22.7573 26.6106 21.5446 27.1635 20.2099C27.7164 18.8753 28.001 17.4448 28.001 16.0001C28.001 14.5554 27.7164 13.1249 27.1635 11.7903C26.6106 10.4556 25.8003 9.24289 24.7787 8.22143C24.5914 8.03393 24.4862 7.77977 24.4862 7.51477C24.4862 7.24976 24.5914 6.9956 24.7787 6.8081Z" fill="#3B3F6E"/>
<path d="M21.2423 10.3424C21.3352 10.2495 21.4454 10.1758 21.5668 10.1255C21.6882 10.0752 21.8182 10.0493 21.9496 10.0493C22.081 10.0493 22.2111 10.0752 22.3325 10.1255C22.4538 10.1758 22.5641 10.2495 22.657 10.3424C23.4 11.0853 23.9894 11.9673 24.3915 12.938C24.7936 13.9087 25.0006 14.9491 25.0006 15.9998C25.0006 17.0505 24.7936 18.0909 24.3915 19.0616C23.9894 20.0322 23.4 20.9142 22.657 21.6571C22.4683 21.8392 22.2156 21.9399 21.9534 21.9375C21.6912 21.9351 21.4405 21.8298 21.2551 21.6443C21.0698 21.4588 20.9648 21.2079 20.9626 20.9457C20.9605 20.6835 21.0614 20.431 21.2436 20.2424C21.8008 19.6853 22.2427 19.0238 22.5443 18.2959C22.8458 17.5679 23.001 16.7877 23.001 15.9998C23.001 15.2118 22.8458 14.4316 22.5443 13.7037C22.2427 12.9757 21.8008 12.3143 21.2436 11.7571C21.0564 11.5696 20.9512 11.3154 20.9512 11.0504C20.9512 10.7854 21.0564 10.5313 21.2436 10.3438L21.2423 10.3424Z" fill="#3B3F6E"/>
</g>
<defs>
<clipPath id="clip0_14_905">
<rect width="32" height="32" fill="white"/>
</clipPath>
</defs>
</svg>
