<svg width="40" height="40" viewBox="0 0 40 40" fill="none" xmlns="http://www.w3.org/2000/svg">
<g clip-path="url(#clip0_92_771)">
<path fill-rule="evenodd" clip-rule="evenodd" d="M20 3.75C11.025 3.75 3.75 11.025 3.75 20C3.75 28.975 11.025 36.25 20 36.25C28.975 36.25 36.25 28.975 36.25 20C36.25 11.025 28.975 3.75 20 3.75ZM15.625 13.75C14.725 13.75 14.245 14.4483 14.065 14.8067C13.8512 15.2574 13.7434 15.7511 13.75 16.25C13.75 16.7467 13.8483 17.2583 14.065 17.6933C14.245 18.0517 14.7233 18.75 15.625 18.75C16.525 18.75 17.005 18.0517 17.185 17.6933C17.4017 17.26 17.5 16.7467 17.5 16.25C17.5 15.7533 17.4017 15.2417 17.185 14.8067C17.005 14.4483 16.5267 13.75 15.625 13.75ZM22.815 14.8067C22.995 14.4483 23.4733 13.75 24.375 13.75C25.275 13.75 25.755 14.4483 25.935 14.8067C26.1517 15.24 26.25 15.7533 26.25 16.25C26.25 16.7467 26.1517 17.2583 25.935 17.6933C25.755 18.0517 25.2767 18.75 24.375 18.75C23.475 18.75 22.995 18.0517 22.815 17.6933C22.6012 17.2426 22.4934 16.7489 22.5 16.25C22.5 15.7533 22.5983 15.2417 22.815 14.8067ZM26.1867 26.1867C26.3095 26.0722 26.408 25.9342 26.4763 25.7809C26.5446 25.6276 26.5814 25.462 26.5843 25.2942C26.5873 25.1264 26.5564 24.9597 26.4935 24.804C26.4307 24.6484 26.3371 24.507 26.2184 24.3883C26.0997 24.2696 25.9583 24.176 25.8027 24.1131C25.647 24.0503 25.4803 24.0194 25.3125 24.0223C25.1446 24.0253 24.9791 24.062 24.8258 24.1304C24.6724 24.1987 24.5344 24.2972 24.42 24.42C23.8396 25.0005 23.1505 25.4611 22.3922 25.7753C21.6338 26.0894 20.8209 26.2512 20 26.2512C19.1791 26.2512 18.3662 26.0894 17.6078 25.7753C16.8495 25.4611 16.1604 25.0005 15.58 24.42C15.343 24.1992 15.0296 24.079 14.7058 24.0847C14.382 24.0904 14.073 24.2216 13.844 24.4506C13.6149 24.6797 13.4838 24.9886 13.478 25.3125C13.4723 25.6363 13.5925 25.9497 13.8133 26.1867C15.4542 27.8273 17.6796 28.749 20 28.749C22.3204 28.749 24.5458 27.8273 26.1867 26.1867Z" fill="#3B3F6E" stroke="#3B3F6E" stroke-width="2.5"/>
</g>
<defs>
<clipPath id="clip0_92_771">
<rect width="40" height="40" fill="white"/>
</clipPath>
</defs>
</svg>
