<svg width="24" height="24" viewBox="0 0 24 24" fill="none" xmlns="http://www.w3.org/2000/svg">
<g clip-path="url(#clip0_15_993)">
<path d="M4.5 4.5C3.70435 4.5 2.94129 4.81607 2.37868 5.37868C1.81607 5.94129 1.5 6.70435 1.5 7.5V16.5C1.5 17.2956 1.81607 18.0587 2.37868 18.6213C2.94129 19.1839 3.70435 19.5 4.5 19.5H12.75C13.5456 19.5 14.3087 19.1839 14.8713 18.6213C15.4339 18.0587 15.75 17.2956 15.75 16.5V7.5C15.75 6.70435 15.4339 5.94129 14.8713 5.37868C14.3087 4.81607 13.5456 4.5 12.75 4.5H4.5ZM19.94 18.75L17.25 16.06V7.94L19.94 5.25C20.884 4.305 22.5 4.974 22.5 6.31V17.69C22.5 19.026 20.884 19.695 19.94 18.75Z" fill="#3B3F6E"/>
</g>
<defs>
<clipPath id="clip0_15_993">
<rect width="24" height="24" fill="white"/>
</clipPath>
</defs>
</svg>
