<svg width="1240" height="360" viewBox="0 0 1240 360" fill="none" xmlns="http://www.w3.org/2000/svg">
  <rect width="1240" height="360" rx="32" fill="#E8F5FB"/>
  <circle cx="1034" cy="88" r="110" fill="#D4EBF5"/>
  <circle cx="1114" cy="264" r="132" fill="#C5E2F0"/>
  <circle cx="232" cy="110" r="42" fill="#F7F1E6"/>
  <path d="M222 226C222 180.713 258.713 144 304 144H472V266H304C258.713 266 222 229.287 222 184V226Z" fill="#9FD2EB"/>
  <path d="M710 116C750 116 782 148 782 188C782 228 750 260 710 260C670 260 638 228 638 188C638 148 670 116 710 116Z" fill="#FCFCFC"/>
  <path d="M710 126C744.242 126 772 153.758 772 188C772 222.242 744.242 250 710 250C675.758 250 648 222.242 648 188C648 153.758 675.758 126 710 126Z" stroke="#3B3F6E" stroke-opacity="0.14" stroke-width="2"/>
  <path d="M710 134C722 152 722 172 710 190C698 208 698 228 710 244" stroke="#3B3F6E" stroke-width="8" stroke-linecap="round"/>
  <path d="M748 188C730 200 710 200 692 188C674 176 654 176 638 188" stroke="#6BCF7F" stroke-width="8" stroke-linecap="round"/>
  <path d="M470 86C492 86 510 104 510 126C510 148 492 166 470 166H418C396 166 378 148 378 126C378 104 396 86 418 86H470Z" fill="#FCFCFC"/>
  <path d="M530 168C560 148 598 148 628 168" stroke="#3B3F6E" stroke-width="8" stroke-linecap="round"/>
  <path d="M792 188C840 188 882 214 910 252" stroke="#3B3F6E" stroke-width="8" stroke-linecap="round"/>
</svg>
